<svg id="chromeball-protect" viewBox="0 0 562 562" fill="none" xmlns="http://www.w3.org/2000/svg" style="max-width: 40rem">
	<circle id="circle-dotted-outer" cx="281" cy="281" r="280" stroke="currentColor" stroke-width="2" vector-effect="non-scaling-stroke" stroke-linecap="round" stroke-linejoin="round" stroke-dasharray="2 8"/>
	<circle id="circle-dotted-middle" cx="281" cy="281" r="260" stroke="currentColor" stroke-width="2" vector-effect="non-scaling-stroke" stroke-linecap="round" stroke-linejoin="round" stroke-dasharray="4 16"/>
	<circle id="circle-dotted-inner" cx="281" cy="281" r="210" stroke="currentColor" stroke-width="2" vector-effect="non-scaling-stroke" stroke-linecap="round" stroke-linejoin="round" stroke-dasharray="12 24"/>
	<path id="chromeball-outline" d="M226.933 311.621C232.257 320.898 239.631 328.376 249.155 334.092C258.56 339.737 268.998 342.581 280.6 342.581C282.897 342.581 285.088 342.493 287.173 342.319C289.111 342.157 291.06 341.833 293.022 341.343L306.261 338.032L271.006 398.809L267.261 398.387C237.479 395.033 212.403 382.246 192.276 360.14L192.269 360.132L192.266 360.129L192.259 360.121C172.101 337.783 162 311.191 162 280.635C162 272.372 162.786 264.37 164.371 256.637C166.243 247.5 169.394 238.785 171.524 233.992L176.125 223.635L226.928 311.613L226.929 311.615L226.932 311.62M334.612 175.072L334.62 175.076C350.964 183.552 364.604 195.015 375.472 209.444L382.436 218.689H280.6C266.776 218.689 254.657 222.721 244.031 230.778L244.011 230.793L244.003 230.799L243.983 230.814C233.257 238.774 225.893 248.899 221.761 261.298L217.716 273.436L182.874 213.372L185.141 210.32C196.003 195.703 209.637 184.046 225.983 175.376L225.986 175.374C242.659 166.443 260.898 162 280.6 162C300.096 162 318.134 166.34 334.612 175.072ZM334.274 311.61C336.833 307.172 338.806 302.377 340.184 297.206L340.201 297.145L340.218 297.084C341.756 291.787 342.528 286.31 342.528 280.635C342.528 272.506 341.062 265.099 338.193 258.345L338.159 258.266L338.128 258.186C335.369 251.115 331.507 244.854 326.534 239.366L317.793 229.718H387.538L389.082 233.08C392.456 240.425 394.941 248.069 396.534 256.005L396.538 256.027C398.317 263.963 399.2 272.169 399.2 280.635C399.2 311.186 389.101 337.69 368.936 359.845L368.933 359.848C349.013 381.939 324.237 394.829 294.832 398.382L283.368 399.767L334.274 311.61ZM244.646 316.6C234.734 306.685 229.698 294.593 229.698 280.635C229.698 266.677 234.734 254.585 244.646 244.67C254.557 234.755 266.646 229.718 280.6 229.718C294.554 229.718 306.643 234.755 316.554 244.67C326.466 254.584 331.502 266.677 331.502 280.635C331.502 294.593 326.466 306.685 316.554 316.6C306.643 326.515 294.554 331.552 280.6 331.552C266.646 331.552 254.557 326.515 244.646 316.6Z" stroke="currentColor" stroke-width="2" vector-effect="non-scaling-stroke" stroke-linejoin="round"/>
</svg>
