<svg width="464" height="54" viewBox="0 0 464 54" fill="none" xmlns="http://www.w3.org/2000/svg">
<path d="M1.88892 27V27C8.1924 16.0901 11.3441 10.6352 14.737 7.79696C24.0208 0.0306848 37.5348 0.0306846 46.8186 7.79696C50.2115 10.6352 53.3632 16.0901 59.6667 27V27C65.9702 37.9099 69.1219 43.3648 72.5148 46.203C81.7986 53.9693 95.3126 53.9693 104.596 46.203C107.989 43.3648 111.141 37.9099 117.444 27V27C123.748 16.0901 126.9 10.6352 130.293 7.79696C139.576 0.0306849 153.09 0.0306857 162.374 7.79697C165.767 10.6352 168.919 16.0901 175.222 27V27C181.526 37.9099 184.677 43.3648 188.07 46.203C197.354 53.9693 210.868 53.9693 220.152 46.203C223.545 43.3648 226.697 37.9099 233 27V27C239.304 16.0901 242.455 10.6352 245.848 7.79696C255.132 0.0306827 268.646 0.0306811 277.93 7.79695C281.323 10.6352 284.474 16.0901 290.778 27V27C297.081 37.9099 300.233 43.3648 303.626 46.203C312.91 53.9693 326.424 53.9693 335.708 46.203C339.1 43.3648 342.252 37.9099 348.556 27V27C354.859 16.0901 358.011 10.6352 361.404 7.79698C370.687 0.0306909 384.201 0.0306878 393.485 7.79697C396.878 10.6352 400.03 16.0901 406.333 27L408.356 30.5C412.894 38.3545 415.163 42.2817 417.386 44.5451C427.184 54.522 443.26 54.522 453.059 44.5451C455.282 42.2817 457.551 38.3544 462.089 30.5V30.5" stroke="black" stroke-width="2" stroke-linecap="round" stroke-linejoin="round" stroke-dasharray="4 16"/>
</svg>
