<svg width="133" height="169" viewBox="0 0 133 169" fill="none" xmlns="http://www.w3.org/2000/svg">
<mask id="path-1-inside-1_323_7689" fill="white">
<path fill-rule="evenodd" clip-rule="evenodd" d="M66 169C93.062 169 115 138.555 115 101C115 84.8471 110.942 70.0097 104.163 58.3443C103.304 56.8665 101.702 56 99.9923 56H32.0077C30.2984 56 28.6961 56.8665 27.8373 58.3443C21.0584 70.0097 17 84.8471 17 101C17 138.555 38.938 169 66 169Z"/>
</mask>
<path d="M104.163 58.3443L103.298 58.8468L104.163 58.3443ZM114 101C114 119.591 108.568 136.381 99.8369 148.499C91.1044 160.617 79.1281 168 66 168V170C79.9338 170 92.4576 162.16 101.46 149.668C110.463 137.174 116 119.964 116 101H114ZM103.298 58.8468C109.982 70.3482 114 85.01 114 101H116C116 84.6843 111.902 69.6712 105.027 57.8419L103.298 58.8468ZM32.0077 57H99.9923V55H32.0077V57ZM18 101C18 85.01 22.0183 70.3482 28.7019 58.8468L26.9727 57.8419C20.0985 69.6713 16 84.6843 16 101H18ZM66 168C52.8719 168 40.8956 160.617 32.1631 148.499C23.4316 136.381 18 119.591 18 101H16C16 119.964 21.5375 137.174 30.5405 149.668C39.5424 162.16 52.0662 170 66 170V168ZM32.0077 55C29.9649 55 28.0216 56.0368 26.9727 57.8419L28.7019 58.8468C29.3706 57.6961 30.6319 57 32.0077 57V55ZM105.027 57.8419C103.978 56.0368 102.035 55 99.9923 55V57C101.368 57 102.629 57.6961 103.298 58.8468L105.027 57.8419Z" fill="black" mask="url(#path-1-inside-1_323_7689)"/>
<path d="M66 75L66 125" stroke="black" stroke-linecap="round"/>
<path d="M66 144L66 139" stroke="black" stroke-linecap="round"/>
<path d="M57 23.5H75C88.531 23.5 99.5 34.469 99.5 48V52C99.5 54.4853 97.4853 56.5 95 56.5H37C34.5147 56.5 32.5 54.4853 32.5 52V48C32.5 34.469 43.469 23.5 57 23.5Z" stroke="black"/>
<path d="M111.328 77L128.648 67" stroke="black" stroke-linecap="round"/>
<path d="M12.4896 149.501L22.4896 132.18" stroke="black" stroke-linecap="round"/>
<path d="M3.10156 67L20.4221 77" stroke="black" stroke-linecap="round"/>
<path d="M1 129.803L20.3185 124.627" stroke="black" stroke-linecap="round"/>
<path d="M112.553 123.624L131.871 128.8" stroke="black" stroke-linecap="round"/>
<path d="M110 129.42L120 146.74" stroke="black" stroke-linecap="round"/>
<path d="M80.6274 23.6274L103.255 1.00002" stroke="black" stroke-linecap="round"/>
<path d="M28 1L50.6274 23.6274" stroke="black" stroke-linecap="round"/>
</svg>
