<svg width="240" height="240" viewBox="0 0 240 240" fill="none" xmlns="http://www.w3.org/2000/svg">
  <g clip-path="url(#chromeball-outline)">
    <path d="M65.9326 150.621C71.2567 159.898 78.6306 167.376 88.1552 173.092C97.5604 178.737 107.998 181.581 119.6 181.581C121.897 181.581 124.088 181.493 126.173 181.319C128.111 181.157 130.06 180.833 132.022 180.343L145.261 177.032L110.006 237.809L106.261 237.387C76.4794 234.033 51.4026 221.246 31.2757 199.14L31.2689 199.132L31.2659 199.129L31.2586 199.121C11.1013 176.783 1 150.191 1 119.635C1 111.372 1.78637 103.37 3.37099 95.6366C5.24313 86.5 8.39396 77.7854 10.5238 72.9919L15.1254 62.6353L65.9281 150.613L65.929 150.615L65.9321 150.62M173.612 14.0723L173.62 14.0765C189.964 22.5516 203.604 34.0145 214.472 48.4438L221.436 57.6889H119.6C105.776 57.6889 93.6568 61.7206 83.0308 69.7782L83.0111 69.7931L83.003 69.7992L82.9831 69.8139C72.2572 77.7742 64.8925 87.8988 60.7605 100.298L56.7157 112.436L21.8736 52.3719L24.141 49.3204C35.0025 34.7025 48.6373 23.0462 64.9828 14.3762L64.9864 14.3743C81.6589 5.44267 99.8979 1 119.6 1C139.096 1 157.134 5.3403 173.612 14.0723ZM173.274 150.61C175.833 146.172 177.806 141.377 179.184 136.206L179.201 136.145L179.218 136.084C180.756 130.787 181.528 125.31 181.528 119.635C181.528 111.506 180.062 104.099 177.193 97.345L177.159 97.2661L177.128 97.1856C174.369 90.1151 170.507 83.8544 165.534 78.3657L156.793 68.7179H226.538L228.082 72.0799C231.456 79.4245 233.941 87.0692 235.534 95.0051L235.538 95.027C237.317 102.963 238.2 111.169 238.2 119.635C238.2 150.186 228.101 176.69 207.936 198.845L207.933 198.848C188.013 220.939 163.237 233.829 133.832 237.382L122.368 238.767L173.274 150.61ZM83.6457 155.6C73.7339 145.685 68.6981 133.593 68.6981 119.635C68.6981 105.677 73.7339 93.5845 83.6457 83.6697C93.5575 73.755 105.646 68.7179 119.6 68.7179C133.554 68.7179 145.643 73.755 155.554 83.6698C165.466 93.5845 170.502 105.677 170.502 119.635C170.502 133.593 165.466 145.685 155.554 155.6C145.643 165.515 133.554 170.552 119.6 170.552C105.646 170.552 93.5575 165.515 83.6457 155.6Z" stroke="currentColor" stroke-width="2" stroke-linejoin="round" vector-effect="non-scaling-stroke"/>
  </g>
  <defs>
    <clipPath id="chromeball-outline">
      <rect width="240" height="240" fill="none"/>
    </clipPath>
  </defs>
</svg>
