<svg fill="none" height="100" viewBox="0 0 100 100" width="100" xmlns="http://www.w3.org/2000/svg"><g fill="#fff"><path d="m46.3179 98.8077 14.9489-25.763-6.315 1.5788c-.7772.1943-1.5479.3223-2.3133.386-.8357.0697-1.7149.1052-2.6384.1052-4.6468 0-8.8172-1.1376-12.5748-3.3922-3.8148-2.2888-6.7626-5.2788-8.8915-8.9872l-.0018-.0032-21.05378-36.4493-2.19506 4.9389c-1.30758 2.942-2.28475 6.0395-2.93473 9.287-.65003 3.1712-.97221 6.4511-.97221 9.8354 0 12.5177 4.14269 23.4231 12.40648 32.5781l.0041.0045.0041.0045c8.2493 9.0581 18.5351 14.3013 30.7407 15.6754z"/><path d="m35.3556 30.4214.0114-.0085.0113-.0085c4.2473-3.2198 9.0877-4.831 14.6218-4.831h42.2169l-3.3215-4.4085c-4.4559-5.9142-10.0486-10.6124-16.7462-14.08433-6.7611-3.58175-14.1605-5.36036-22.1492-5.36036-8.0736 0-15.5551 1.82063-22.3954 5.48394-6.6977 3.55155-12.2877 8.32855-16.7402 14.31925l-1.08147 1.455 14.75187 25.4234 1.9294-5.7883c1.6531-4.9591 4.5964-9.0056 8.8913-12.1921z"/><path d="m94.4735 30.8464-.7366-1.6032h-29.5326l4.1692 4.6005c1.9878 2.1934 3.5322 4.6954 4.636 7.5239l.0149.0382.0161.0377c1.1435 2.6908 1.7302 5.6468 1.7302 8.9006 0 2.2691-.3089 4.4569-.923 6.5721l-.0084.029-.0078.0292c-.5515 2.0684-1.3401 3.9841-2.3622 5.7558l-21.103 36.5344 5.4685-.6606c12.0527-1.456 22.2155-6.7419 30.3792-15.7927 8.2683-9.0813 12.4099-19.9515 12.4099-32.4672 0-3.4695-.362-6.8346-1.092-10.0905-.6538-3.2563-1.6737-6.3934-3.0584-9.4072z"/><path d="m28.8992 50.3441c0 5.7816 2.0907 10.7995 6.196 14.9048 4.1053 4.1054 9.1232 6.1961 14.9049 6.1961 5.7816 0 10.7996-2.0907 14.9049-6.1961 4.1053-4.1053 6.196-9.1232 6.196-14.9048s-2.0907-10.7996-6.196-14.9049c-4.1054-4.1053-9.1233-6.196-14.9049-6.196-5.7817 0-10.7996 2.0907-14.9049 6.196s-6.196 9.1233-6.196 14.9049z"/></g></svg>