<svg width="140" height="150" viewBox="0 0 140 150" fill="none" xmlns="http://www.w3.org/2000/svg">
<path d="M140 38.3721V6.97674H133V0H77V6.97674H70V52.3256H63V59.3023H52.5V66.2791H42V73.2558H35V80.2326H21V73.2558H14V66.2791H7V52.3256H0V94.186H7V101.163H14V108.14H21V115.116H28V122.093H35V150H49V143.023H42V136.047H49V129.07H56V122.093H63V129.07H70V150H84V143.023H77V115.116H84V108.14H91V97.6744H98V73.2558H105V80.2326H112V66.2791H98V52.3256H126V45.3488H105V38.3721H140ZM91 17.4419H84V10.4651H91V17.4419Z" fill="white"/>
</svg>
