<svg fill="none" height="240" viewBox="0 0 240 240" width="240" xmlns="http://www.w3.org/2000/svg"><path d="m3.3719 95.632-.00091.0046c-1.58462 7.7334-2.37099 15.7354-2.37099 23.9984 0 30.556 10.1013 57.148 30.2586 79.486h.0002l.0071.008.003.003.0068.008h.0003c20.1269 22.106 45.2034 34.893 74.985 38.247l3.745.422 35.255-60.777-13.239 3.311c-1.962.49-3.911.814-5.849.976-2.085.174-4.276.262-6.573.262-11.602 0-22.0396-2.844-31.4448-8.489-9.5246-5.716-16.8985-13.194-22.2226-22.471zm0 0c1.58484-7.9206 3.96652-15.471 7.1519-22.6401l4.6016-10.3566 50.8027 87.9777.0009.002.0031.005zm170.2401-81.5597.008.0042c16.344 8.4751 29.984 19.938 40.852 34.3673l6.964 9.2451h-101.836c-13.824 0-25.9432 4.0317-36.5692 12.0893l-.0197.0149-.0081.0061-.0199.0147c-10.7259 7.9603-18.0906 18.0849-22.2226 30.4841l-4.0448 12.138-34.8421-60.0641 2.2674-3.0515c10.8615-14.6179 24.4963-26.2742 40.8418-34.9442l.0036-.0019c16.6725-8.93163 34.9115-13.3743 54.6136-13.3743 19.496 0 37.534 4.3403 54.012 13.0723zm-.338 136.5377c2.559-4.438 4.532-9.233 5.91-14.404l.017-.061.017-.061c1.538-5.297 2.31-10.774 2.31-16.449 0-8.129-1.466-15.536-4.335-22.29l-.034-.0789-.031-.0805c-2.759-7.0705-6.621-13.3312-11.594-18.8199l-8.741-9.6478h69.745l1.544 3.362c3.374 7.3446 5.859 14.9893 7.452 22.9252l.004.0219c1.779 7.936 2.662 16.142 2.662 24.608 0 30.551-10.099 57.055-30.264 79.21l-.003.003c-19.92 22.091-44.696 34.981-74.101 38.534l-11.464 1.385zm-89.6283 4.99c-9.9118-9.915-14.9476-22.007-14.9476-35.965s5.0358-26.0505 14.9476-35.9653c9.9118-9.9147 22.0003-14.9518 35.9543-14.9518s26.043 5.0371 35.954 14.9519c9.912 9.9147 14.948 22.0072 14.948 35.9652s-5.036 26.05-14.948 35.965c-9.911 9.915-22 14.952-35.954 14.952s-26.0425-5.037-35.9543-14.952z" fill="#212126" stroke="#212126" stroke-linejoin="round" stroke-width="2"/></svg>