<svg fill="none" height="52" viewBox="0 0 464 52" width="464" xmlns="http://www.w3.org/2000/svg"><path d="m1.88892 26c6.30348-10.9099 9.45518-16.3648 12.84808-19.20304 9.2838-7.766275 22.7978-7.766275 32.0816 0 3.3929 2.83824 6.5446 8.29314 12.8481 19.20304 6.3035 10.9099 9.4552 16.3648 12.8481 19.203 9.2838 7.7663 22.7978 7.7663 32.0812 0 3.393-2.8382 6.545-8.2931 12.848-19.203 6.304-10.9099 9.456-16.3648 12.849-19.20304 9.283-7.766275 22.797-7.766274 32.081.00001 3.393 2.83823 6.545 8.29313 12.848 19.20303 6.304 10.9099 9.455 16.3648 12.848 19.203 9.284 7.7663 22.798 7.7663 32.082 0 3.393-2.8382 6.545-8.2931 12.848-19.203 6.304-10.9099 9.455-16.36481 12.848-19.20304 9.284-7.766277 22.798-7.766279 32.082-.00001 3.393 2.83824 6.544 8.29315 12.848 19.20305 6.303 10.9099 9.455 16.3648 12.848 19.203 9.284 7.7663 22.798 7.7663 32.082 0 3.392-2.8382 6.544-8.2931 12.848-19.203 6.303-10.9099 9.455-16.36479 12.848-19.20302 9.283-7.766289 22.797-7.766292 32.081-.00001 3.393 2.83823 6.545 8.29313 12.848 19.20303l2.023 3.5c4.538 7.8545 6.807 11.7817 9.03 14.0451 9.798 9.9769 25.874 9.9769 35.673 0 2.223-2.2634 4.492-6.1907 9.03-14.0451" stroke="#fff" stroke-dasharray="4 8" stroke-linecap="round" stroke-linejoin="round" stroke-width="2"/></svg>