<svg width="464" height="52" viewBox="0 0 464 52" fill="none" xmlns="http://www.w3.org/2000/svg">
<path d="M1.88892 26V26C8.1924 15.0901 11.3441 9.6352 14.737 6.79696C24.0208 -0.969315 37.5348 -0.969315 46.8186 6.79696C50.2115 9.6352 53.3632 15.0901 59.6667 26V26C65.9702 36.9099 69.1219 42.3648 72.5148 45.203C81.7986 52.9693 95.3126 52.9693 104.596 45.203C107.989 42.3648 111.141 36.9099 117.444 26V26C123.748 15.0901 126.9 9.6352 130.293 6.79696C139.576 -0.969315 153.09 -0.969314 162.374 6.79697C165.767 9.6352 168.919 15.0901 175.222 26V26C181.526 36.9099 184.677 42.3648 188.07 45.203C197.354 52.9693 210.868 52.9693 220.152 45.203C223.545 42.3648 226.697 36.9099 233 26V26C239.304 15.0901 242.455 9.63519 245.848 6.79696C255.132 -0.969317 268.646 -0.969319 277.93 6.79695C281.323 9.63519 284.474 15.0901 290.778 26V26C297.081 36.9099 300.233 42.3648 303.626 45.203C312.91 52.9693 326.424 52.9693 335.708 45.203C339.1 42.3648 342.252 36.9099 348.556 26V26C354.859 15.0901 358.011 9.63521 361.404 6.79698C370.687 -0.969309 384.201 -0.969312 393.485 6.79697C396.878 9.6352 400.03 15.0901 406.333 26L408.356 29.5C412.894 37.3545 415.163 41.2817 417.386 43.5451C427.184 53.522 443.26 53.522 453.059 43.5451C455.282 41.2817 457.551 37.3544 462.089 29.5V29.5" stroke="white" stroke-width="2" stroke-linecap="round" stroke-linejoin="round" stroke-dasharray="4 8"/>
</svg>
